<?xml version="1.0" encoding="UTF-8"?><svg id="Layer_2" xmlns="http://www.w3.org/2000/svg" viewBox="0 0 500 500"><defs><style>.cls-1{fill:#e72a52;}</style></defs><g id="Layer_1-2"><path class="cls-1" d="M285.95,260.94v-58.77h21.28v59.25c0,20.79-8.53,36.42-39.78,36.42s-39.79-15.63-39.79-36.42v-59.25h21.28v58.77c0,9.38,2.76,17.19,18.51,17.19s18.51-7.81,18.51-17.19Z"/><path class="cls-1" d="M78.73,295.7l-33.83-93.54h21.28s26.49,71.36,26.49,71.36l26.63-71.36h21.28s-34.97,93.54-34.97,93.54h-26.87Z"/><path class="cls-1" d="M326.07,295.7v-93.54h21.39v72.26h38.51v21.28h-59.91Z"/><path class="cls-1" d="M374.87,223.44v-21.28h80.23v21.28h-29.48v72.26h-21.28v-72.26h-29.48Z"/><path class="cls-1" d="M186.25,202.16l33.83,93.54h-21.28l-26.49-71.36-26.63,71.36h-21.28l34.97-93.54h26.87Z"/><rect class="cls-1" x="161.61" y="274.43" width="21.28" height="21.28"/><path class="cls-1" d="M500,500H0V0h500v500ZM21.93,478.07h456.15V21.93H21.93v456.15Z"/></g></svg>