<?xml version="1.0" encoding="UTF-8"?><svg id="Layer_2" xmlns="http://www.w3.org/2000/svg" viewBox="0 0 267.92 62.49"><defs><style>.cls-1{fill:#e72a52;}</style></defs><g id="Layer_1-2"><path class="cls-1" d="M157.44,38.39V0h13.9v38.7c0,13.58-5.57,23.79-25.98,23.79s-25.98-10.21-25.98-23.79V0h13.9v38.39c0,6.12,1.8,11.23,12.09,11.23s12.09-5.1,12.09-11.23Z"/><path class="cls-1" d="M22.1,61.09L0,0h13.9s17.3,46.6,17.3,46.6L48.59,0h13.9s-22.84,61.09-22.84,61.09h-17.55Z"/><path class="cls-1" d="M183.65,61.09V0h13.97v47.2h25.15v13.9h-39.13Z"/><path class="cls-1" d="M215.52,13.9V0h52.4v13.9h-19.25v47.2h-13.9V13.9h-19.25Z"/><path class="cls-1" d="M92.32,0l22.1,61.09h-13.9l-17.3-46.6-17.39,46.6h-13.9L74.78,0h17.55Z"/><rect class="cls-1" x="76.23" y="47.2" width="13.9" height="13.9"/></g></svg>